<?xml version="1.0" standalone="no"?>
<svg xmlns="http://www.w3.org/2000/svg" viewBox="0 0 1024 1024">
  <path d="M880 836H144c-17.7 0-32 14.3-32 32v36c0 4.4 3.6 8 8 8h784c4.4 0 8-3.6 8-8v-36c0-17.7-14.3-32-32-32z m-622.3-84c2 0 4-0.2 6-0.5L431.9 722c2-0.4 3.9-1.3 5.3-2.8l423.9-423.9c3.9-3.9 3.9-10.2 0-14.1L694.9 114.9c-1.9-1.9-4.4-2.9-7.1-2.9s-5.2 1-7.1 2.9L256.8 538.8c-1.5 1.5-2.4 3.3-2.8 5.3l-29.5 168.2c-1.9 11.1 1.5 22.5 9.1 30.2 6.6 6.6 15.2 10.1 24.1 10.1z m216.6-135.7l-214.6 38 38-214.6L533.1 202.3l164.7 164.7-223.5 223.5z" fill="#333333"></path>
</svg> 